<svg width="1440" height="900" viewBox="0 0 1440 900" fill="none" xmlns="http://www.w3.org/2000/svg">
<path d="M678.519 214.262L537.961 295.513C511.979 310.575 496 338.243 496 368.21V530.751C496 560.816 511.979 588.484 537.961 603.487L678.519 684.777C704.482 699.722 736.498 699.722 762.403 684.777L903.019 603.487C928.924 588.484 944.981 560.816 944.981 530.751V368.21C944.981 338.224 928.924 310.555 903.019 295.513L762.403 214.262C736.498 199.24 704.502 199.24 678.519 214.262Z" fill="#041E77"/>
<path d="M741.734 330.293L813.005 371.464C826.104 379.083 834.258 393.17 834.258 408.329V490.71C834.258 505.889 826.104 519.937 813.005 527.516L741.734 568.746C728.616 576.345 712.384 576.345 699.228 568.746L627.995 527.516C614.819 519.937 606.742 505.889 606.742 490.71V408.329C606.742 393.15 614.838 379.083 627.995 371.464L699.228 330.293C712.384 322.714 728.616 322.714 741.734 330.293Z" fill="white"/>
</svg>
